<svg width="724" height="724" viewBox="0 0 724 724" fill="none" xmlns="http://www.w3.org/2000/svg">
<path d="M361.507 723.081C561.162 723.081 723.014 561.214 723.014 361.541C723.014 161.867 561.162 0 361.507 0C161.852 0 0 161.867 0 361.541C0 561.214 161.852 723.081 361.507 723.081Z" fill="#0072BC"/>
<path d="M511.275 519.069H211.74C206.263 519.064 201.012 516.885 197.139 513.012C193.266 509.139 191.088 503.887 191.083 498.41V317.639C191.088 312.162 193.267 306.91 197.139 303.037C201.012 299.164 206.263 296.986 211.74 296.98H511.275C516.751 296.986 522.002 299.164 525.875 303.037C529.748 306.91 531.926 312.162 531.932 317.639V498.409C531.927 503.887 529.748 509.139 525.876 513.012C522.003 516.885 516.752 519.064 511.275 519.069ZM211.74 317.639V498.41H511.29L511.275 317.639L211.74 317.639Z" fill="white"/>
<path d="M454.466 317.639H268.548V235.001C268.548 175.147 307.644 131.704 361.507 131.704C415.37 131.704 454.466 175.147 454.466 235.001L454.466 317.639ZM289.205 296.98H433.808V235.001C433.808 186.346 404.078 152.364 361.507 152.364C318.936 152.364 289.206 186.346 289.206 235.001L289.205 296.98Z" fill="white"/>
<path d="M361.507 423.519C372.916 423.519 382.164 414.27 382.164 402.86C382.164 391.45 372.916 382.2 361.507 382.2C350.098 382.2 340.85 391.45 340.85 402.86C340.85 414.27 350.098 423.519 361.507 423.519Z" fill="white"/>
</svg>
